<mxfile host="app.diagrams.net" modified="2023-11-21T17:08:38.568Z" agent="Mozilla/5.0 (Windows NT 10.0; Win64; x64) AppleWebKit/537.36 (KHTML, like Gecko) Chrome/119.0.0.0 Safari/537.36" version="22.1.3" etag="IubA0tZctb8wKc8fQ-ye" type="github">
  <diagram name="Page-1" id="RITym0Rh0xQARJRgP7pJ">
    <mxGraphModel>
      <root>
        <mxCell id="0" />
        <mxCell id="1" parent="0" />
      </root>
    </mxGraphModel>
  </diagram>
</mxfile>
